                    <svg class="MuiSvgIcon-root MuiSvgIcon-colorPrimary" focusable="false" viewBox="0 0 386.6 357.8" aria-hidden="true" style="width:auto;height:48px"><g transform="translate(2196.025 9508.584)"><g transform="translate(-0.026 0)"><path d="M-1947.8-9343.4c-10.6-7.1-22.2-12.6-34.4-16.3c-10.9-3.3-19.5-5.5-25.9-6.7c-20.2-5.1-36.7-9.4-49.2-12.7 c-9.7-2.4-19.1-5.6-28.3-9.5c-4.2-1.5-8-4.2-10.8-7.8c-1.8-3.4-2.6-7.2-2.4-11.1c-0.2-4.4,0.9-8.9,3.2-12.7c2.4-3.6,5.6-6.7,9.2-9 c4-2.5,8.4-4.3,12.9-5.2c5.1-1.1,10.4-1.6,15.6-1.6c7.6,0,15.2,0.7,22.7,2.1c6,1.2,11.8,3.4,17.1,6.6c4.7,3,8.5,7.1,11,12 c3.2,6.5,5,13.6,5.2,20.8l0.5,7.9h85.6v-8.6c0.5-18-3.6-35.9-11.7-52c-7.6-14.1-18.4-26.3-31.6-35.5c-13.5-9.3-28.6-16-44.6-19.8 c-16.7-4-33.8-6-51-6c-15.5,0-31,2.1-46,6.2c-15,4-29.2,10.6-41.9,19.5c-12.5,8.8-22.9,20.2-30.5,33.5 c-8.2,14.6-12.3,31.1-11.9,47.8c-0.4,14.6,2.9,29.1,9.5,42.1c5.9,11.3,14.2,21.1,24.3,29c10.1,7.7,21.3,13.8,33.1,18.3 c12,4.5,24.2,8.3,36.6,11.4c11.8,3.5,23.7,6.4,35.4,9.2c10.2,2.3,20.1,5.4,29.9,9.2c7.2,2.7,13.8,6.7,19.4,11.9 c4.1,4.1,6.2,9.7,5.9,15.4c0.3,5.4-1.3,10.7-4.5,15c-3.5,4.4-7.9,8-13,10.4c-5.7,2.7-11.9,4.5-18.1,5.4 c-6.4,0.9-12.8,1.4-19.3,1.5c-8.5,0-17-1-25.3-3.2c-7.3-1.8-14.1-4.9-20.2-9.2c-5.6-4.1-10.1-9.4-13.2-15.5l0,0 c-3.5-7.5-5.3-15.7-5-24v-8.6h-86.2v8.3c-0.8,19.4,3.3,38.6,11.9,56c7.9,15.4,19.2,28.7,33.1,39c14.3,10.3,30.5,17.8,47.6,22.1 c17.8,4.6,36,7,54.4,6.9c20.7,0.3,41.2-2.4,61.1-8.1c16.4-4.8,31.8-12.6,45.3-23.2c12.1-9.7,21.7-22,28.1-36.1 c6.4-14.2,9.6-29.6,9.4-45.1c0-19.8-4.4-36.5-13-49.6C-1925.8-9325-1935.9-9335.3-1947.8-9343.4z"></path><path d="M-1856.1-9248.5c-25.8-0.1-46.8,20.8-46.8,46.6s20.8,46.8,46.6,46.8c25.8,0.1,46.8-20.8,46.8-46.6 c0,0,0,0,0,0v0C-1809.4-9227.5-1830.3-9248.4-1856.1-9248.5z"></path></g></g></svg>