{
    "asset" : {
        "generator" : "Khronos glTF Blender I/O v1.8.19",
        "version" : "2.0"
    },
    "scene" : 0,
    "scenes" : [
        {
            "name" : "Scene",
            "nodes" : [
                0,
                1,
                2,
                3,
                4,
                5,
                6
            ]
        }
    ],
    "nodes" : [
        {
            "mesh" : 0,
            "name" : "path123"
        },
        {
            "mesh" : 1,
            "name" : "path121",
            "rotation" : [
                0.0807204395532608,
                0.18424783647060394,
                -0.4098639488220215,
                0.889690101146698
            ]
        },
        {
            "mesh" : 2,
            "name" : "path119"
        },
        {
            "mesh" : 3,
            "name" : "path117"
        },
        {
            "mesh" : 4,
            "name" : "path115"
        },
        {
            "mesh" : 5,
            "name" : "path113"
        },
        {
            "mesh" : 6,
            "name" : "path111",
            "rotation" : [
                0,
                0,
                -0.01003034133464098,
                0.9999496936798096
            ],
            "scale" : [
                24.329317092895508,
                -14.45489501953125,
                24.344118118286133
            ],
            "translation" : [
                0,
                0.03215348720550537,
                0
            ]
        }
    ],
    "materials" : [
        {
            "doubleSided" : true,
            "name" : "SVGMat.001",
            "pbrMetallicRoughness" : {
                "baseColorFactor" : [
                    0.48514994978904724,
                    0.48514994978904724,
                    0.48514994978904724,
                    1
                ],
                "metallicFactor" : 0,
                "roughnessFactor" : 0.4000000059604645
            }
        },
        {
            "doubleSided" : true,
            "name" : "SVGMat.002",
            "pbrMetallicRoughness" : {
                "baseColorFactor" : [
                    0.031849026679992676,
                    0.3662526309490204,
                    0.01953698880970478,
                    1
                ],
                "metallicFactor" : 0,
                "roughnessFactor" : 0.4000000059604645
            }
        },
        {
            "doubleSided" : true,
            "name" : "SVGMat.003",
            "pbrMetallicRoughness" : {
                "baseColorFactor" : [
                    0.2622506618499756,
                    0.2622506618499756,
                    0.2622506618499756,
                    1
                ],
                "metallicFactor" : 0,
                "roughnessFactor" : 0.4000000059604645
            }
        },
        {
            "doubleSided" : true,
            "name" : "SVGMat.004",
            "pbrMetallicRoughness" : {
                "baseColorFactor" : [
                    0.18116424977779388,
                    0.18116424977779388,
                    0.18116424977779388,
                    1
                ],
                "metallicFactor" : 0,
                "roughnessFactor" : 0.4000000059604645
            }
        },
        {
            "doubleSided" : true,
            "name" : "SVGMat.005",
            "pbrMetallicRoughness" : {
                "baseColorFactor" : [
                    0.11697066575288773,
                    0.11697066575288773,
                    0.11697066575288773,
                    1
                ],
                "metallicFactor" : 0,
                "roughnessFactor" : 0.4000000059604645
            }
        },
        {
            "doubleSided" : true,
            "name" : "SVGMat.006",
            "pbrMetallicRoughness" : {
                "baseColorFactor" : [
                    0.0666259378194809,
                    0.0666259378194809,
                    0.0666259378194809,
                    1
                ],
                "metallicFactor" : 0,
                "roughnessFactor" : 0.4000000059604645
            }
        },
        {
            "doubleSided" : true,
            "name" : "SVGMat.007",
            "pbrMetallicRoughness" : {
                "baseColorFactor" : [
                    0.006511978805065155,
                    0.0056053223088383675,
                    0.1811641901731491,
                    1
                ],
                "metallicFactor" : 0,
                "roughnessFactor" : 0.4000000059604645
            }
        }
    ],
    "meshes" : [
        {
            "name" : "path123",
            "primitives" : [
                {
                    "attributes" : {
                        "POSITION" : 0,
                        "NORMAL" : 1,
                        "TEXCOORD_0" : 2
                    },
                    "indices" : 3,
                    "material" : 0
                }
            ]
        },
        {
            "name" : "path121",
            "primitives" : [
                {
                    "attributes" : {
                        "POSITION" : 4,
                        "NORMAL" : 5,
                        "TEXCOORD_0" : 6
                    },
                    "indices" : 7,
                    "material" : 1
                }
            ]
        },
        {
            "name" : "path119",
            "primitives" : [
                {
                    "attributes" : {
                        "POSITION" : 8,
                        "NORMAL" : 9,
                        "TEXCOORD_0" : 10
                    },
                    "indices" : 11,
                    "material" : 2
                }
            ]
        },
        {
            "name" : "path117",
            "primitives" : [
                {
                    "attributes" : {
                        "POSITION" : 12,
                        "NORMAL" : 13,
                        "TEXCOORD_0" : 14
                    },
                    "indices" : 15,
                    "material" : 3
                }
            ]
        },
        {
            "name" : "path115",
            "primitives" : [
                {
                    "attributes" : {
                        "POSITION" : 16,
                        "NORMAL" : 17,
                        "TEXCOORD_0" : 18
                    },
                    "indices" : 19,
                    "material" : 4
                }
            ]
        },
        {
            "name" : "path113",
            "primitives" : [
                {
                    "attributes" : {
                        "POSITION" : 20,
                        "NORMAL" : 21,
                        "TEXCOORD_0" : 22
                    },
                    "indices" : 23,
                    "material" : 5
                }
            ]
        },
        {
            "name" : "path111",
            "primitives" : [
                {
                    "attributes" : {
                        "POSITION" : 24,
                        "NORMAL" : 25,
                        "TEXCOORD_0" : 26
                    },
                    "indices" : 27,
                    "material" : 6
                }
            ]
        }
    ],
    "accessors" : [
        {
            "bufferView" : 0,
            "componentType" : 5126,
            "count" : 264,
            "max" : [
                0.07503897696733475,
                0,
                -0.009135885164141655
            ],
            "min" : [
                0.0197785384953022,
                0,
                -0.06834138184785843
            ],
            "type" : "VEC3"
        },
        {
            "bufferView" : 1,
            "componentType" : 5126,
            "count" : 264,
            "type" : "VEC3"
        },
        {
            "bufferView" : 2,
            "componentType" : 5126,
            "count" : 264,
            "type" : "VEC2"
        },
        {
            "bufferView" : 3,
            "componentType" : 5123,
            "count" : 546,
            "type" : "SCALAR"
        },
        {
            "bufferView" : 4,
            "componentType" : 5126,
            "count" : 422,
            "max" : [
                0.07503897696733475,
                0,
                -0.002889169380068779
            ],
            "min" : [
                0.0019935513846576214,
                0,
                -0.06834138184785843
            ],
            "type" : "VEC3"
        },
        {
            "bufferView" : 5,
            "componentType" : 5126,
            "count" : 422,
            "type" : "VEC3"
        },
        {
            "bufferView" : 6,
            "componentType" : 5126,
            "count" : 422,
            "type" : "VEC2"
        },
        {
            "bufferView" : 7,
            "componentType" : 5123,
            "count" : 960,
            "type" : "SCALAR"
        },
        {
            "bufferView" : 8,
            "componentType" : 5126,
            "count" : 552,
            "max" : [
                0.07503897696733475,
                0,
                -0.00019484013319015503
            ],
            "min" : [
                0.0020011451561003923,
                0,
                -0.06834236532449722
            ],
            "type" : "VEC3"
        },
        {
            "bufferView" : 9,
            "componentType" : 5126,
            "count" : 552,
            "type" : "VEC3"
        },
        {
            "bufferView" : 10,
            "componentType" : 5126,
            "count" : 552,
            "type" : "VEC2"
        },
        {
            "bufferView" : 11,
            "componentType" : 5123,
            "count" : 1095,
            "type" : "SCALAR"
        },
        {
            "bufferView" : 12,
            "componentType" : 5126,
            "count" : 402,
            "max" : [
                0.05174000933766365,
                0,
                -0.000187269106390886
            ],
            "min" : [
                0.0020011451561003923,
                0,
                -0.0683414489030838
            ],
            "type" : "VEC3"
        },
        {
            "bufferView" : 13,
            "componentType" : 5126,
            "count" : 402,
            "type" : "VEC3"
        },
        {
            "bufferView" : 14,
            "componentType" : 5126,
            "count" : 402,
            "type" : "VEC2"
        },
        {
            "bufferView" : 15,
            "componentType" : 5123,
            "count" : 939,
            "type" : "SCALAR"
        },
        {
            "bufferView" : 16,
            "componentType" : 5126,
            "count" : 213,
            "max" : [
                0.07261161506175995,
                0,
                -0.000187269106390886
            ],
            "min" : [
                0.026763930916786194,
                0,
                -0.016478631645441055
            ],
            "type" : "VEC3"
        },
        {
            "bufferView" : 17,
            "componentType" : 5126,
            "count" : 213,
            "type" : "VEC3"
        },
        {
            "bufferView" : 18,
            "componentType" : 5126,
            "count" : 213,
            "type" : "VEC2"
        },
        {
            "bufferView" : 19,
            "componentType" : 5123,
            "count" : 486,
            "type" : "SCALAR"
        },
        {
            "bufferView" : 20,
            "componentType" : 5126,
            "count" : 169,
            "max" : [
                0.030419256538152695,
                0,
                -0.000187269106390886
            ],
            "min" : [
                0.006186437793076038,
                0,
                -0.03733652085065842
            ],
            "type" : "VEC3"
        },
        {
            "bufferView" : 21,
            "componentType" : 5126,
            "count" : 169,
            "type" : "VEC3"
        },
        {
            "bufferView" : 22,
            "componentType" : 5126,
            "count" : 169,
            "type" : "VEC2"
        },
        {
            "bufferView" : 23,
            "componentType" : 5123,
            "count" : 348,
            "type" : "SCALAR"
        },
        {
            "bufferView" : 24,
            "componentType" : 5126,
            "count" : 3760,
            "max" : [
                0.038925960659980774,
                0.009999999776482582,
                0.028844304382801056
            ],
            "min" : [
                -0.03604705259203911,
                -0.009999999776482582,
                -0.03919108957052231
            ],
            "type" : "VEC3"
        },
        {
            "bufferView" : 25,
            "componentType" : 5126,
            "count" : 3760,
            "type" : "VEC3"
        },
        {
            "bufferView" : 26,
            "componentType" : 5126,
            "count" : 3760,
            "type" : "VEC2"
        },
        {
            "bufferView" : 27,
            "componentType" : 5123,
            "count" : 6672,
            "type" : "SCALAR"
        }
    ],
    "bufferViews" : [
        {
            "buffer" : 0,
            "byteLength" : 3168,
            "byteOffset" : 0
        },
        {
            "buffer" : 0,
            "byteLength" : 3168,
            "byteOffset" : 3168
        },
        {
            "buffer" : 0,
            "byteLength" : 2112,
            "byteOffset" : 6336
        },
        {
            "buffer" : 0,
            "byteLength" : 1092,
            "byteOffset" : 8448
        },
        {
            "buffer" : 0,
            "byteLength" : 5064,
            "byteOffset" : 9540
        },
        {
            "buffer" : 0,
            "byteLength" : 5064,
            "byteOffset" : 14604
        },
        {
            "buffer" : 0,
            "byteLength" : 3376,
            "byteOffset" : 19668
        },
        {
            "buffer" : 0,
            "byteLength" : 1920,
            "byteOffset" : 23044
        },
        {
            "buffer" : 0,
            "byteLength" : 6624,
            "byteOffset" : 24964
        },
        {
            "buffer" : 0,
            "byteLength" : 6624,
            "byteOffset" : 31588
        },
        {
            "buffer" : 0,
            "byteLength" : 4416,
            "byteOffset" : 38212
        },
        {
            "buffer" : 0,
            "byteLength" : 2190,
            "byteOffset" : 42628
        },
        {
            "buffer" : 0,
            "byteLength" : 4824,
            "byteOffset" : 44820
        },
        {
            "buffer" : 0,
            "byteLength" : 4824,
            "byteOffset" : 49644
        },
        {
            "buffer" : 0,
            "byteLength" : 3216,
            "byteOffset" : 54468
        },
        {
            "buffer" : 0,
            "byteLength" : 1878,
            "byteOffset" : 57684
        },
        {
            "buffer" : 0,
            "byteLength" : 2556,
            "byteOffset" : 59564
        },
        {
            "buffer" : 0,
            "byteLength" : 2556,
            "byteOffset" : 62120
        },
        {
            "buffer" : 0,
            "byteLength" : 1704,
            "byteOffset" : 64676
        },
        {
            "buffer" : 0,
            "byteLength" : 972,
            "byteOffset" : 66380
        },
        {
            "buffer" : 0,
            "byteLength" : 2028,
            "byteOffset" : 67352
        },
        {
            "buffer" : 0,
            "byteLength" : 2028,
            "byteOffset" : 69380
        },
        {
            "buffer" : 0,
            "byteLength" : 1352,
            "byteOffset" : 71408
        },
        {
            "buffer" : 0,
            "byteLength" : 696,
            "byteOffset" : 72760
        },
        {
            "buffer" : 0,
            "byteLength" : 45120,
            "byteOffset" : 73456
        },
        {
            "buffer" : 0,
            "byteLength" : 45120,
            "byteOffset" : 118576
        },
        {
            "buffer" : 0,
            "byteLength" : 30080,
            "byteOffset" : 163696
        },
        {
            "buffer" : 0,
            "byteLength" : 13344,
            "byteOffset" : 193776
        }
    ],
    "buffers" : [
        {
            "byteLength" : 207120,
            "uri" : "data:application/octet-stream;base64,"
        }
    ]
}
